<mxfile host="app.diagrams.net" agent="Mozilla/5.0 (X11; Linux x86_64) AppleWebKit/537.36 (KHTML, like Gecko) Chrome/139.0.0.0 Safari/537.36" version="28.2.1">
  <diagram name="Page-1" id="hUwM7MaTD-X5zsLxgFez">
    <mxGraphModel dx="556" dy="229" grid="1" gridSize="10" guides="1" tooltips="1" connect="1" arrows="1" fold="1" page="1" pageScale="1" pageWidth="1100" pageHeight="850" math="0" shadow="0">
      <root>
        <mxCell id="0" />
        <mxCell id="1" parent="0" />
        <mxCell id="Vk8oR19Hwpy6iqDrBP3A-2" value="" style="rounded=1;whiteSpace=wrap;html=1;strokeWidth=2;arcSize=6;fillColor=none;perimeterSpacing=0;" parent="1" vertex="1">
          <mxGeometry x="400" y="36.66" width="240" height="540" as="geometry" />
        </mxCell>
        <mxCell id="Vk8oR19Hwpy6iqDrBP3A-1" value="" style="rounded=1;whiteSpace=wrap;html=1;strokeWidth=2;arcSize=6;perimeterSpacing=0;" parent="1" vertex="1">
          <mxGeometry x="80" y="37" width="240" height="540" as="geometry" />
        </mxCell>
        <mxCell id="Majosq9tyu4GCC03gBCJ-8" value="" style="rounded=1;whiteSpace=wrap;html=1;shadow=1;strokeColor=none;" parent="1" vertex="1">
          <mxGeometry x="400" y="170" width="240" height="90" as="geometry" />
        </mxCell>
        <mxCell id="y3_PM98ufoNBAnTdany9-6" value="&lt;b&gt;Crear Cotizacion&lt;/b&gt;" style="rounded=0;whiteSpace=wrap;html=1;labelBackgroundColor=none;fontColor=#FFFFFF;fillColor=#0066CC;strokeColor=none;" parent="1" vertex="1">
          <mxGeometry x="400" y="100" width="240" height="30" as="geometry" />
        </mxCell>
        <mxCell id="y3_PM98ufoNBAnTdany9-8" value="10 Sep 2025" style="rounded=1;whiteSpace=wrap;html=1;strokeColor=#E6E6E6;align=left;" parent="1" vertex="1">
          <mxGeometry x="400" y="140" width="120" height="20" as="geometry" />
        </mxCell>
        <mxCell id="y3_PM98ufoNBAnTdany9-9" value="TIJ 23751" style="rounded=1;whiteSpace=wrap;html=1;strokeColor=#E6E6E6;align=right;fontStyle=1" parent="1" vertex="1">
          <mxGeometry x="550" y="140" width="90" height="20" as="geometry" />
        </mxCell>
        <mxCell id="y3_PM98ufoNBAnTdany9-10" value="Microsistemas San Luis" style="rounded=1;whiteSpace=wrap;html=1;strokeColor=#E6E6E6;align=left;" parent="1" vertex="1">
          <mxGeometry x="400" y="170" width="240" height="20" as="geometry" />
        </mxCell>
        <mxCell id="Majosq9tyu4GCC03gBCJ-1" value="Av G Victoria 1609 Col Residencias S&lt;span style=&quot;background-color: transparent;&quot;&gt;an Luis RC Sonora 83448 MSL0004057V5&lt;/span&gt;" style="rounded=0;whiteSpace=wrap;html=1;strokeColor=#E6E6E6;align=left;verticalAlign=top;fontColor=#808080;fontSize=10;" parent="1" vertex="1">
          <mxGeometry x="400" y="190" width="150" height="60" as="geometry" />
        </mxCell>
        <mxCell id="Majosq9tyu4GCC03gBCJ-2" value="W8281" style="rounded=0;strokeColor=#E6E6E6;align=right;verticalAlign=middle;whiteSpace=wrap;html=1;spacing=0;labelPosition=center;verticalLabelPosition=middle;spacingRight=0;fontStyle=1;fillColor=none;fontColor=#0066CC;" parent="1" vertex="1">
          <mxGeometry x="550" y="190" width="90" height="20" as="geometry" />
        </mxCell>
        <mxCell id="Majosq9tyu4GCC03gBCJ-4" value="653 534-8800" style="rounded=0;strokeColor=#E6E6E6;align=right;verticalAlign=middle;whiteSpace=wrap;html=1;spacing=0;labelPosition=center;verticalLabelPosition=middle;spacingRight=0;fontStyle=1;fillColor=none;fontColor=#0066CC;" parent="1" vertex="1">
          <mxGeometry x="550" y="230" width="90" height="20" as="geometry" />
        </mxCell>
        <mxCell id="Majosq9tyu4GCC03gBCJ-6" value="" style="rounded=1;whiteSpace=wrap;html=1;shadow=1;strokeColor=none;" parent="1" vertex="1">
          <mxGeometry x="400" y="265" width="240" height="80" as="geometry" />
        </mxCell>
        <mxCell id="Majosq9tyu4GCC03gBCJ-7" value="" style="rounded=1;whiteSpace=wrap;html=1;shadow=1;strokeColor=none;" parent="1" vertex="1">
          <mxGeometry x="400" y="350" width="240" height="80" as="geometry" />
        </mxCell>
        <mxCell id="qLL796jNpzEnXT2YoVhw-1" value="$ 86,268.52" style="text;html=1;align=center;verticalAlign=middle;whiteSpace=wrap;rounded=0;fontStyle=1;fontSize=14;fontColor=#009900;" parent="1" vertex="1">
          <mxGeometry x="559" y="540" width="80" height="20" as="geometry" />
        </mxCell>
        <mxCell id="qLL796jNpzEnXT2YoVhw-4" style="edgeStyle=none;curved=1;rounded=0;orthogonalLoop=1;jettySize=auto;html=1;entryX=1;entryY=0.75;entryDx=0;entryDy=0;fontSize=12;startSize=8;endSize=8;" parent="1" edge="1">
          <mxGeometry relative="1" as="geometry">
            <mxPoint x="620" y="635" as="sourcePoint" />
            <mxPoint x="620" y="635" as="targetPoint" />
          </mxGeometry>
        </mxCell>
        <mxCell id="qLL796jNpzEnXT2YoVhw-5" value="Guardar" style="text;html=1;align=center;verticalAlign=middle;whiteSpace=wrap;rounded=1;fontStyle=0;fontSize=10;strokeColor=#82b366;fillColor=#d5e8d4;" parent="1" vertex="1">
          <mxGeometry x="480" y="540" width="60" height="20" as="geometry" />
        </mxCell>
        <mxCell id="qLL796jNpzEnXT2YoVhw-8" value="" style="sketch=0;pointerEvents=1;shadow=0;dashed=0;html=1;strokeColor=none;fillColor=#505050;labelPosition=center;verticalLabelPosition=bottom;verticalAlign=top;outlineConnect=0;align=center;shape=mxgraph.office.concepts.document_blank;aspect=fixed;" parent="1" vertex="1">
          <mxGeometry x="410" y="542.5" width="12.77" height="15" as="geometry" />
        </mxCell>
        <mxCell id="qLL796jNpzEnXT2YoVhw-13" value="" style="group;aspect=fixed;" parent="1" vertex="1" connectable="0">
          <mxGeometry x="405" y="450" width="110" height="25" as="geometry" />
        </mxCell>
        <mxCell id="qLL796jNpzEnXT2YoVhw-11" value="" style="text;html=1;align=left;verticalAlign=bottom;whiteSpace=wrap;rounded=1;fontStyle=0;fontSize=10;strokeColor=#E6E6E6;fillColor=none;" parent="qLL796jNpzEnXT2YoVhw-13" vertex="1">
          <mxGeometry width="110" height="25" as="geometry" />
        </mxCell>
        <mxCell id="qLL796jNpzEnXT2YoVhw-12" value="" style="outlineConnect=0;dashed=0;verticalLabelPosition=bottom;verticalAlign=top;align=center;html=1;shape=mxgraph.aws3.user;fillColor=#D2D3D3;gradientColor=none;aspect=fixed;" parent="qLL796jNpzEnXT2YoVhw-13" vertex="1">
          <mxGeometry x="2" y="2.5" width="14.29" height="20" as="geometry" />
        </mxCell>
        <mxCell id="qLL796jNpzEnXT2YoVhw-9" value="Tijuana" style="text;html=1;align=left;verticalAlign=bottom;whiteSpace=wrap;rounded=0;fontStyle=0;fontSize=10;strokeColor=none;fillColor=none;" parent="qLL796jNpzEnXT2YoVhw-13" vertex="1">
          <mxGeometry x="19.289999999999992" y="10" width="90.71" height="15" as="geometry" />
        </mxCell>
        <mxCell id="qLL796jNpzEnXT2YoVhw-10" value="Almacen" style="text;align=left;verticalAlign=middle;rounded=0;fontStyle=0;fontSize=7;strokeColor=none;fillColor=none;fontColor=#B3B3B3;convertToSvg=1;" parent="qLL796jNpzEnXT2YoVhw-13" vertex="1">
          <mxGeometry x="19.289999999999992" width="40" height="10" as="geometry" />
        </mxCell>
        <mxCell id="qLL796jNpzEnXT2YoVhw-14" value="" style="group;aspect=fixed;" parent="1" vertex="1" connectable="0">
          <mxGeometry x="520" y="450" width="110" height="25" as="geometry" />
        </mxCell>
        <mxCell id="qLL796jNpzEnXT2YoVhw-15" value="" style="text;html=1;align=left;verticalAlign=bottom;whiteSpace=wrap;rounded=1;fontStyle=0;fontSize=10;strokeColor=#E6E6E6;fillColor=none;" parent="qLL796jNpzEnXT2YoVhw-14" vertex="1">
          <mxGeometry width="110" height="25" as="geometry" />
        </mxCell>
        <mxCell id="qLL796jNpzEnXT2YoVhw-16" value="" style="outlineConnect=0;dashed=0;verticalLabelPosition=bottom;verticalAlign=top;align=center;html=1;shape=mxgraph.aws3.user;fillColor=#D2D3D3;gradientColor=none;aspect=fixed;" parent="qLL796jNpzEnXT2YoVhw-14" vertex="1">
          <mxGeometry x="2" y="2.5" width="14.29" height="20" as="geometry" />
        </mxCell>
        <mxCell id="qLL796jNpzEnXT2YoVhw-17" value="Contado" style="text;html=1;align=left;verticalAlign=bottom;whiteSpace=wrap;rounded=0;fontStyle=0;fontSize=10;strokeColor=none;fillColor=none;" parent="qLL796jNpzEnXT2YoVhw-14" vertex="1">
          <mxGeometry x="19.289999999999992" y="10" width="90.71" height="15" as="geometry" />
        </mxCell>
        <mxCell id="qLL796jNpzEnXT2YoVhw-18" value="Forma Pago" style="text;align=left;verticalAlign=middle;rounded=0;fontStyle=0;fontSize=7;strokeColor=none;fillColor=none;fontColor=#B3B3B3;convertToSvg=1;" parent="qLL796jNpzEnXT2YoVhw-14" vertex="1">
          <mxGeometry x="19.289999999999992" width="40" height="10" as="geometry" />
        </mxCell>
        <mxCell id="qLL796jNpzEnXT2YoVhw-19" value="" style="group;aspect=fixed;" parent="1" vertex="1" connectable="0">
          <mxGeometry x="405" y="480" width="110" height="25" as="geometry" />
        </mxCell>
        <mxCell id="qLL796jNpzEnXT2YoVhw-20" value="" style="text;html=1;align=left;verticalAlign=bottom;whiteSpace=wrap;rounded=1;fontStyle=0;fontSize=10;strokeColor=#E6E6E6;fillColor=none;" parent="qLL796jNpzEnXT2YoVhw-19" vertex="1">
          <mxGeometry width="110" height="25" as="geometry" />
        </mxCell>
        <mxCell id="qLL796jNpzEnXT2YoVhw-21" value="" style="outlineConnect=0;dashed=0;verticalLabelPosition=bottom;verticalAlign=top;align=center;html=1;shape=mxgraph.aws3.user;fillColor=#D2D3D3;gradientColor=none;aspect=fixed;" parent="qLL796jNpzEnXT2YoVhw-19" vertex="1">
          <mxGeometry x="2" y="2.5" width="14.29" height="20" as="geometry" />
        </mxCell>
        <mxCell id="qLL796jNpzEnXT2YoVhw-22" value="Yadira Lugo" style="text;html=1;align=left;verticalAlign=bottom;whiteSpace=wrap;rounded=0;fontStyle=0;fontSize=10;strokeColor=none;fillColor=none;" parent="qLL796jNpzEnXT2YoVhw-19" vertex="1">
          <mxGeometry x="19.289999999999992" y="10" width="90.71" height="15" as="geometry" />
        </mxCell>
        <mxCell id="qLL796jNpzEnXT2YoVhw-23" value="Vendedor" style="text;align=left;verticalAlign=middle;rounded=0;fontStyle=0;fontSize=7;strokeColor=none;fillColor=none;fontColor=#B3B3B3;convertToSvg=1;" parent="qLL796jNpzEnXT2YoVhw-19" vertex="1">
          <mxGeometry x="19.289999999999992" width="40" height="10" as="geometry" />
        </mxCell>
        <mxCell id="qLL796jNpzEnXT2YoVhw-24" value="" style="group;aspect=fixed;" parent="1" vertex="1" connectable="0">
          <mxGeometry x="520" y="480" width="110" height="25" as="geometry" />
        </mxCell>
        <mxCell id="qLL796jNpzEnXT2YoVhw-25" value="" style="text;html=1;align=left;verticalAlign=bottom;whiteSpace=wrap;rounded=1;fontStyle=0;fontSize=10;strokeColor=#E6E6E6;fillColor=none;" parent="qLL796jNpzEnXT2YoVhw-24" vertex="1">
          <mxGeometry width="110" height="25" as="geometry" />
        </mxCell>
        <mxCell id="qLL796jNpzEnXT2YoVhw-26" value="" style="outlineConnect=0;dashed=0;verticalLabelPosition=bottom;verticalAlign=top;align=center;html=1;shape=mxgraph.aws3.user;fillColor=#D2D3D3;gradientColor=none;aspect=fixed;" parent="qLL796jNpzEnXT2YoVhw-24" vertex="1">
          <mxGeometry x="2" y="2.5" width="14.29" height="20" as="geometry" />
        </mxCell>
        <mxCell id="qLL796jNpzEnXT2YoVhw-27" value="Pesos" style="text;html=1;align=left;verticalAlign=bottom;whiteSpace=wrap;rounded=0;fontStyle=0;fontSize=10;strokeColor=none;fillColor=none;" parent="qLL796jNpzEnXT2YoVhw-24" vertex="1">
          <mxGeometry x="19.289999999999992" y="10" width="90.71" height="15" as="geometry" />
        </mxCell>
        <mxCell id="qLL796jNpzEnXT2YoVhw-28" value="Moneda" style="text;align=left;verticalAlign=middle;rounded=0;fontStyle=0;fontSize=7;strokeColor=none;fillColor=none;fontColor=#B3B3B3;convertToSvg=1;" parent="qLL796jNpzEnXT2YoVhw-24" vertex="1">
          <mxGeometry x="19.289999999999992" width="40" height="10" as="geometry" />
        </mxCell>
        <mxCell id="B4GTvvfutrH1OPNK6nr7-1" value="" style="shape=image;verticalLabelPosition=bottom;labelBackgroundColor=default;verticalAlign=top;aspect=fixed;imageAspect=0;image=data:image/png,iVBORw0KGgoAAAANSUhEUgAAAsEAAACxCAIAAACqbvfLAAAAA3NCSVQICAjb4U/gAAAgAElEQVR4Xu2dB2BUxRaGCaGG0HtP6J3QkSIdpfcqCAgCIk9Qwa4IWAAVxIJIkaZ0BKRXFQTpvZPQe4eEkNDyvruDl8vu3ZJN2yRn5eUls1P/mTvnn3POnOuVJEmSnDlzbtu2vXjx0nfuXPf29o6IiMiRI8eaNWtGjBi1bNnKpEmTeXl5kU0+goAgIAgIAoKAICAI6AgkhUD89NNPY8Z8qxMFCMTq1atHj/528eIlXl5JBSxBQBAQBAQBQUAQEARsEUi6ffv2zZu3TJw4OWlSjS4oAvHtt2PnzVuQLFkKOIQoIWxRkxRBQBAQBAQBQUAQ8Eqd2heikCxZ8qRJvW/cuHTgwIGxY7+fM2ceBIIUABIOIatEEBAEBAFBQBAQBGwR8ML7wZjas+erc+bMT55cCIQtVpIiCAgCgoAgIAgIAk8R0EwVfLJnz75nz55evXrPnSsEQtaHICAICAKCgCAgCDhHQPOByJYt26pVq8eNGz97tpgwnEMmOQQBQUAQEAQEAUEABLyzZs26evWan34aP3PmHDFhyJoQBAQBQUAQEAQEARcR8Nq9e8/PP/88Y8YsIRAuQibZBAFBQBAQBAQBQQAEvB8/jpg5c7YQCFkNgoAgIAgIAoKAIBApBLzSp8/i5eWtgkPINc5IYSeZBQFBQBAQBASBxIxAMm/v5Gr8QiAS8zqQsQsCgoAgIAgIApFFQN6FEVnEJL8gIAgIAoKAICAIaAjI6zBkHQgCgoAgIAgIAoKAOwgIh3AHNSkjCAgCgoAgIAgIAsIhZA0IAoKAICAICAKCgDsICIdwBzUpIwgIAoKAICAICALCIWQNCAKCgCAgCAgCgoA7CAiHcAc1KSMICAKCgCAgCAgCwiFkDQgCgoAgIAgIAoKAOwgIh3AHNSkjCAgCgoAgIAgIAsIhZA0IAoKAICAICAKCgDsIJHOnkJQRBAQBQUAQEASihoD+goWIiIio1eRSadWc8a0OtBs7TbvUv/iZSThE/Jw36bUgIAgIAkmS6BLRyws4tP8ZhaInC0hvb28jh3jMK6RjmEnQXPLkydULJi1rJ+LRo8cPHz6kaVlKbiMgHMJt6KSgICAICAIuIYD08vHxQVaFhYVFl6SkTsRwihTJ06VLl9rySZkyJZXTBJ/Q0NA7d4IfPHgQC7LZJQiezYQsr1mzerFiRS3JEbdu3d66dfvp02eQ6C7WRg2MNyQkxMX8ZMuTJ/fw4UPy5ctn4Vsa2dq+fecXX4ykddcrkZxWCAiHkCUhCAgCgkDMIuDr69uvX+8bN27OmTM/ODg4KjQC6sBJOnnyZJkzZ27YsH69enVy5cqZKlXqVKkQqSk4yYeHh4eFhcMhTp06tWbNuj///FsnE+4NUrVIo1Zqg6iwExhAo0YN69Sp/c8/m/m9TJlS3bt3ff/9T3bu3OW0k3SDob7wQoN06dLOmDHTaX56niwZb6j2hmYVKlSwSJHCqghYXb16DehSp77PWBTfclqbnoFuKN0Ps2k6oZYMTzJRyh5c5NBVI7Z5aMIy3SlgV48ePTJtyPU+x0TOGOcQCiB+MnggME4A0Hh7sy61pcm3jx/zPRg6VyupOlVZS4WUpbBJ2f9yerP+WTGWVrRmPHAmYmJ2pU5BQBDwBASQefXr18uXLy+b3syZc+7evevKRmfbc4qnSJGiQAH/Vq2av/RSp4wZM5CHqhAwd++G3rt3D5GTJo1P1qxZkJqlSpVo2rTxuXMXpk6dvmLFqrNnz6kd1rZaeykW6YWeI22ePHny58+XNq0vA7l//35IyN0zZ86gNogaO/EKDAx8990P6TyV//LLzz16vLx37z7Hqgi2dPrw4osNP/nkg19/dYlAQLaaNHmxYsUKQMfv1KDGy/+XLVvmyy+Ho8w4cuTovHm/X7t2zcV5oRJgyZgxI1Uxm9euXTfKFL5FPKVJkwbNR7p06YExLOzepUuXqf/Bg6emE0s2b7qUO3eu1KlToT06f/4CVRklFEKyYEH/Pn1eXbBg4Y4duwDf3mTFVXrMcggwYikDQdGiRa9evbpt2w61PhR22bNna968WenSJeCB169f37Bh019/bWA6Hc+iXrZFi2Y8JKrs33//8/ffG63Kqtb9/f2aN28K92TFnD17fuXKVfv3HwgP14hnXIEu7QoCgkDCRkAJKiu5kilTxkGDBrJlTZ48lc0qsicZRFGGDOl79XqlU6f26B7Ywe7cuYNc2bhx08GDh/gdGkG7iC6yBQSUef75mshIxNiHH7730ksdJ078Ze7cBfAMF7c+xFvGjOkrVKjQuXP7EiVKZMqUCRnMfv7o0UMkGTqVo0ePzZ49b/PmLTdv3nSxTqtJ51xHQUTmhQsXg4JOZsuWFQJ0+/Yde2uD0UEg2M+HDv3Y1zeNAtleZpVO/r59e/3vf/3ITHP/8YcnhZiRpk0b8QdKCGQ5dg1XBkJV0KmBA//XqNELdH7t2vVDh35unE2gK1y40NtvD6xSpRJzwTkZ2E+dOj1z5uxZs+aiKFKZ4WdVq1Z+5523ixYtghoJDnHgwKFRo75BUKrzNg1hqOrfv1+7dq3z5s3Ts2ffxMUhWPFp06Zt0qTR4MEDc+bMuW7dX3v3vqY4BJzrhRcavv/+YOinvg66dn1p1ao1X3wx6vjxQF1jYfsoWsq+8MEHgyH1xrIrV65WZdUiUNPcoUO7gQPfyJo1s77OevXqMWvWnO++G3fx4kVXlovjBSrfCgKCgCBghYBF+mbgkIrYQDjp37IppU+f/vXX+3BynT17Lqd512kEwtvf3++jj97jCE6dx44dX7163cSJk69cufqsG+WT1jZs2Pj99z/lz5+3b9/etWs/7+eXH1cANPk//DD+0qVLjtulnzRXuHBB7AutW7diy0XfcPLkKY7RWEmQypkzZ0Kk1apVs1q1qosWLZk0aQp8wrH+wN4iQUOMpIBXpU+fDiHKMd1eTtKVBmLYsI+R9/TEQU79KwZStWoVtnrECn4PhQoVyJIlixIcSBnO/efOnUM8IYkyZ9aUCq584FJ169bp2bMHyDAXUB9jKWa/bNnS3377NcwAnMkA64LxkFi0aGFwGzPme+XGgTvIyJFf+Pvnv379xuXLlyE0zz1XZcSIz/r0ef3IkWPUCcmoW7dW48YvwNiw2kTK+cOVgURLnhjRQzBD4AhYMDU4BIuDvrJWlNswX9Wq9fynn36UM2cO8MVud//+AyBmfTRoUJ+fb7zxluXBSII6CPLLlDPNPG+sA0vZWkOHfpQjR3ZVlp/wbko1bNjAUvZtFB6UZem88kr3/v37wmPQOkDSKQ6nI0/Xrp1JHDJkGMawaAFRKhEEBAFBQEcgS5bMb701oGDBApxr9+8/qAtXfjlz5iwSixMqLpZTpkwLDnZJG8FOiEAaPXpkQEDZ0NB7c+fO++mniVSFiGKzRd2NewSSmF/pAxsdZ3us5/zfyZOnP/jgE7SwAwf2b9z4RTgBR6/33/8Y2emARiC6UPGivahUqQJ05++/N6DACAo6wSb88OEDtlY67+/v17592+efr8ERmZEOHfrZnj379LOfK4sBlQBn9HLlAshcqVJFDDQTJkzmvG5almGydaN7xoSROTMkwFqjYFqKRJUTakLlp0+f/fbbr5QS2pLuhTkGY0qHDm1RVNirwSodnBkvog0CobiIUbdBCoLvk08+BHN0BihpZsz4DQZWo0a1zp070PPOnTuiNFq48I9UqVLhEQKBgJx98skwSBiqi6+/HkHl5Bk27AumD5DpGDnJj1+LgylzsfMxkS1GOASLDB3Oxx9/APNSKBu7DvQoA7DYwapQ7IwfP+HSpSv16tV59923S5QoDmVu2LA+SxZyEBAQMGbMKDBdsWIl7jaIfMq++moPHlGePdQJ48dPvHz5Sv36dd99d1Dx4kXr1KnVoEHd+fMXstCrV3+uT59ecIWLFy/9/POkWbNm37sXhuppwID+tNKqVYvt23f8+ussWokJWKVOQUAQSJwIsONhaChfvhw70rBhQzirQCPUNohQ+eGHn6pXr8bJkuMN4pktSNdsO4ALKfLmm2+wH967FzpixFeYQqAjEIsUKVLSFjskstzf3w/NBx5fHGqPHTuOgQPhxPZIzsOHjwwYMAjO0bfvq7gxvv76ax9++Ik9gcQ5DaXFO++8hZr9xImT06b9atmN78Mb2HjTpPGlD1euXEM6/vvv1pYtm+MrWr58AITj7bffpQnXaQSYsBXjBoFU5hzIOXvKlOmmvSKn0kAMGfIhgsPKHuEAN+NX1Jw7d06GMH36b/v372eYgIasyZEjh2mjptXSE9wgunTpVKxYEcsUeFtlYywVKpQvU6Y0HA7V+JtvvqOMVps2/QvH+uabERkyZMCRZcmS5Qy5TJky5FfWKHQwN2/eWr/+L6xOaICwlfDV66/3hYscOnR43LifWS2mXYrzxBjhEKD87ruDS5cuBco8PzxL4KUPlQlbvnwlUOLGMnr0WFY8X61atQZOyiPHz+eeqwrtoixaOx4Pi9GoCmofOIReFlhHj/7uxg2tLFNFbcOHf4KaAd3a4sVLmGmciVAnsqDJhtpQmZH++GMZq3/SpJ9YiM2aNVm4cPHt27dj+E5ynE+xdEAQEARiDwH2qIMHD3/22Zeffz6sXLmyX3wx/OOPPz1z5hySj69Qp7PplSxZHNnAERPpjiR2KsPQ269Zs5YzEtcLyIx0QXqhi+UwhqKXgy+bpHGEJL72Wm84xPz5vyOb8TDQz3K3bt3688+/HLTILsq5vHr16idOaOdjuEK6dL4NG9ZD65AnT25kOXsp7gt//LF02bKV8+cvOHny5OjRoyAcb7zRD7cA1+9J0gdc0z799DM0zWPHfm3Pm1IRCLbrYcM+Yd+O4kSi8960adOKFatBjBMmHCJSjIRSqHM6deqAZKHDiCcqMXYJtwY0Kz4+qVGH44Cie70gzriBAo2oW7c2pfz9/TBPoC6iLHVy6lZzipWEFCJl8CfaeiQgvibffPMtRjEHUxZFTKJYPEZiXYMOSoLAwCBAHD78C1aVUU7j+PPLL9OaNm3FAoV5qQEAELoyuBh/KmcZUnD9xQbBkoU9KKpBWTh4kyYthwwZzsNgVjYta4559fPLx2N27tz5v/76WxEIy9w83rp1G1ojVgD8PXv27Mq8EkUQpbggIAgIAjoCbDgIjA8++Jg9DaPAqFFfVKhQDlGBYOCM1K5dGwwK7GyLFi3dvn0nm5JT6NivOP9wDQFh8957gxAtsJPp03/hnOrv72dFIFRtqC44d73//rs//vid0rySGTX+pElT1q//055Aon6Ux61bt+TUy22OLVu24iiAjmHMmK8w1WfNmjVZsuT4IlSuXHHo0E+wKaOx2LVrz1dfjSZ/vXr1OH/bHs3tjQ6hgDp5374DYLVy5RpO576+vraZLRqIBhwRUSHYfhubKUwfDiX9+vWBKMB+Jkz4BTytOsDwmWISMTkxxcZvWRU4lJACUWAsISHB6MLhFtWqVWGAzBFEDU6DXooTMhcOMD+hd+eEzG0De/MVm8O311aM6CEY8OLFfwAQIpynxdL2M6FMyYDdi4/eLTU90DdSLl68zDNDnt9/X8wiQ7EDD0A7p3C0U7YAXjmWspe45KmcjMjJ86kTcL7ldxqC/fGL+tjDRdIFAUFAEHADAXYYdZN8y5ZtH300FOFXuHBhztCoRREeXF9EDnEanjVr3ujRYxAhiG21UzmWE5yvxoz5DhUvfuK43SGQuBBo3Nxsu8q36C1wyitSpCA2CNqCFkyYMAk1u21mUsiPCh0NLhKOa27oMDJkyIjIbNu2FUc4dMMbNvyD6hcZiTmmY8d2WISp9p133iedCFF169Zu3rwJmnlc3EzrN0tk0BHkX7JkGYNq0uRFLnropIr+WHwgmuJeoHwgzGqIpTQ6g4YGxQ9+G1euXBkx4muUQ7ZTxszirU86qnH0Q8eOBTIc/lT00d/fj+5ayMR1iqMOadToRUjbiBGfQzjwt2W8u3btWrp0eb9+fQsXLoSqY+zYcR5rxVDQxwiHoGoUBvjBWpa480Do4It/JaY19Ac8KngUY34DdxRBixb9oTpqO1sqXZVlNcNhKYv7j9I6QCaYPGYRzRIur0wt+SGJJUuWsNzz9KJyiyHDefdUQ/JTEBAEBAHHCEAIChYswLaDrOWEvXnzvx99NASjBnsOmw/bTsmSJZEWs2fPGT78S5yxUM6XKlWSo+eBAwfxvHOwHfEVJolvv/0BGzH/XD/uk5PIjJzKOO7//PNkzscOhoBZoXLlSuzeWITpFbcPWrduwUHuhx/G/fbbHHZUdB54m8EYjh8/jiqCqxnkX7NmHV5ouLLVrFkDquQih+C2Auc9xkW1u3fvOXv2HPRl2bIV6m6nIhAvvNBgyJCP3PaBMI6UCi0f0p7Eh1DfqiQHmKiviN+FtgArD1Rs6dIV27btYBZsSwHazp27mUpkGYof7EEW99XHWPMJZICygcFytCb8FwM/ceLkoEHvcbezdOmS6I3QrO/Zs5dbGyVKFKMteNsPP/zEfQJknGqIIg5WiG1nYiclpjiE672Hs6MaeuON19GVARBXQP/9d4t+w8cxZJSFuA0Y0B8XTkvZ9RgXmWPmCZsfXq8wO1R/FtXiJtYryr1PP/0wW7ZsZN6794BuSXG9t5JTEBAEBAFTBJBGeDWi4cejKzDwRO/e/U6cOLlly/b33vsIjwHOr2S4fz8c96xRo8awKSGPsRoMHvwWGtm33npn7dr1jrc7vsVpcciQz6ZPn4xCwkXhR1fZDzHPYztWd9ZMO08isgoTMGoGVO74sSH2ONeRvmrV6hkzZqHoRc2AA/uOHTvxscCDDR8IbhAgVtl40TojAhk+JEmd3+y1otLZpXfs2I2IpW+kYO/Gub5y5co0ajEBaBu7xQfiYwwojqty5VuoA1YYdW/lCY/Q4j9qnEK5IziuBGSU/wqEjEia3333I1NmOlkkkgE06tWrU6VKlV9/nYI9CBLG2RU3W6JfwM/gSUrAQey4o/Haa//D0QR4qRMdBr/j9MqfCxYsIu4RLeIvQc8hIpTiY9qu4/7H6LdxzCGYQl/ftAMGvE7UFBYNBovvv//RRdGuymI0oixKQrwcUPugWgAv1iWOr3Dkli1b8OhOnjwewySqCI4ImEsoyCkBa4vSWMQovlK5ICAIJB4EEO14WbEdEUEBWwMcAjnB1rRu3Z9sROCgjvjKjItkwq7BvscNC1QXiDSnrhHIj61bt7733gfEFeCk6wqNoMjVq9cGDhyE/6Zj8UNtBFVEpnICRn/OnfwCBfxQ7q5atZae44SBuQFFC8oG6MLs2fPxqcSJgTBWhIsmP35/nLPz5s3tSq/Yewm8SLWqS6BEuAv+WVKScKpEA4EZCN+LaFk8DAonU94twtQoMgf4zBTgf/75UHQMjluBV3EtlslCpY2eQIUesFcEOwVKJrz6IA3+/n78IyeY0CKCicWA4cY4EahtUOoo7QghIogohfkebjF+/CTabdGiC7YkiBRRPWAVWJTogyJe9joQy+lxySGAFQUO1426devKXKLzGTr0cxSARnz15Wi1+lVZrhV169aFZXH+/HkuKKMP1LOxKDFZcZ8Tpg+3ZSKZQqUARIXIbaVdu3Z71EzE8sRLc4KAIBC9CLD5cGFh6tRfMeGj7ee8zjbF0fx//3uN24BqK0MqjBz5ORpsNjostr/9NjtfvjxInXXr/rQ4cjn/4M2wYsWa0qVLv/rqK0h0pwKboA74oWPIcEwgVMNIUwgNxy06kzo1v3vzC2oJGkLfTlt82G+5vjhz5tyzZ89SijwE8cOJ7caNW2yxKvy282HYBMZS3VMbe/PmTYcMiU4fCCQ4fIgm8ILkiG8JFJQCEwmdV9zOgSxgvExomzatFdE5dOiwhb1pMcVxN6HmZMlSkAIrwpBBPbTCYbhfvwHNmjUmlCLekRAsnE/xkEDdghaKRWI1FyqAJiDXrVu7QYN6cLhvvhmLreezzz6tV68OmDDpKNG5cIsv7eDBH9y5c5t2XAE5FvLEGYcAF19fX6KQvvbaq9w8xhjGDShiXaOr0YeN1Gdu0BygmWB6dNwpi+8P5IMo4nxL2Q8/HILax1iWzMQn/+ijT5cuXUakengcNL9hw/qsnsDAIDx3eLRiAV9pQhAQBBIPAigYpk//lbBCasgQiFde6cY/tjIkED/ZxzisE/amf/+3UAxg/+7Y8WUys19ZyRUHoCGTRo0azbEYFwRO2OyHppmpkObYAL//fpxxbzTNrBJRk5AzTZrUHNnv3buLEgLBlj9/fkwbXCHBlmERhLe43cZYuLJBKZpANCKMYQ+4q1uuy7kp3hgIh0k0EEQgjBYfCH2kCiHqZ1xwLzxbLULEuSKHbOiTund/GUEDP6Bv3LBV1XI0RdtEBlxBAwJK4yFBhEPFRfjJkRjvk4kTp3BObtOmJb4jkIy1a9fzthRWgu0UgCfqB2z66GAWL16qYm/Url2LFTVnznwoac2a1dq2bQPDwHgEKeQdKbaVxElKjNztdDoSNZd9+vTs3bsXBAL7GSQATwgrAgF3++abkTNnTsNgAeFQj4qlbArIR+/ePZlXDEgffPAJMbxMHxJma9OmLcOGfYGWgoaohBU/btwEeKLrT6zT4UgGQUAQEAQUAmws6jCKTB0woD+xpFBTIzw46iBFpk6dwTGU9weNHftNyZLF2c3IrPK7DiBN4BL+zjsfHDp0hLL2CvIVogjlruneaFuKarmWz0mdExdbJVZ86kektWrVDCaxcuVqAlURKvv99z9ZuHAJErRjx/achvft248XJPKYQM40ZHEhtK3beQpQQCCgKSNGDCd6tNrtnReLZA6qhYF9/fUYvO95v6krUgAoUF1Yzv1e+NLlsXywPWF3UI0DDimAZtVnVTmeECwDlBbHjgX++ONPCCDbLlMQBRXxQgoXLnTgwKHvvvsBSlG7dk3AJzjViBFfY/4YOfIbIlAhxXBiNcZbsq0tllPiQA8BXswKDKB/f81zBCdVC4H402qhkw07EO6pLCysYhs2/MPzQCIaiD59evXrR9lUPJYEXANZBw8JRZhjqoKzQymwYixbtlw8IWJ5nUlzgkDiQQABwHkdRWn37l3YmnC94lrmlCk/Ixq5+rhmzfpx4wgzVYJXKnTr1otNzBVJZose0nrQoHcnT56ANcRW4tIuJ6XBg99XkXVsi9umwDlOnz599eo1f38/vNS5WMftjPr16xQvXowofzhOstPqEZdRrZcqVQr/M3S6tF69elUEG2MhjJIDWmPbqJ6iNBBcgo0uHwjTtjAKII+nTft13rzfOZ0S6MI0m57I1DBGpE+WLIeNORky72HgxWZ0GwcFgmTgwWClYCAPLheDBg2EYVDJL79MVW/BsG0RZVK9enUaNqwP+HgEMrNUjsoc4sL0qbBJmOBxiaAsJ2e8LG0riauUOOgKeKHcQ5HAmgMgKCGGQ8iE0oDBYVmCynLBDVqAQ0uGyOcXMLKU7Y72Alr3X9ndlrLah/lGmQaPNs4lxWvWrI7VA50S/iyEvYJfxxXc0q4gIAgkeAQgEKhOcdVCYvFKKt6aYfGr1xzr2I5Qp6NaZ6dSF87dRoPtjjPr0KHDR436UinV9arYQpE3nM14H4TrBIWcREUkMCWRhZs3b0qUAnZm4vziVUZsR1WPXtuRI0dGjvwa8zzX6DhDt2/fltYxRrvoEW8cNbBYNBDEgXjyLgy3MXFaEIs23o6IYR+fVMo9zmkRiBEqH6ts1FOxYsUJE37E5sIN3v7937RE3XiqgWFQCCbekcF9QzwlCBGGR6Q9KwZvAkMJAQhz5swnohTThwnj6NGjhF3mDSnYOM6ePe/n50dwbmpgTtFCOe12rGWIAw5BpHGeLvXmdcDt0aPbyy93MQw4As0E1gd+zpu3AHNGkSKFli/nhd2avyTk11I2A/nhGfAJ/DGNZcF62LDPKasSmUgiT6BK4j034D5u3PjAwCDXH6pYmwZpSBAQBBIGAigh2LKwWz948HDJkqVE1GXnUWdrhBYBK4mCwCmTDY27Em4rIRRWKBtWrlxDhAkiQfHuDAQb6exvwcHBGONd9KM0wo4/BEGsea8Q4TW7dOn8008TOHSxi9qqFogzwbsCiN/DuY7IB5CJy5evIAJNdfUOZlYRiJjwgTBtlClo06ZVlixZ0A34+/vRumk2YyJ42ooMXnYGJkh0y4dfNFdKYymWAaqmnj27owUn9jkuKeoyjm1znKVRWdEZ7gQAuIquwU8VgQo+N2XKRFxnmGU8MxBwvCnCNj6mbbWxlhLjHELpFcDXYk/SUPb21hpVi5L3nfAxjpac3C9CZ8Av+EnwUjXYGYCq/Io5qt8hB/yzKZuOssbEevXqMpf4uBJ+e9myVQ6sHrEGujQkCAgCCRUBdqe9e/d/9dUY6AL3ABHn+khx5MKbj00MH4I333znyJGjtsIpsrCgo0VVwO3KXr26I84pjvr2u+/G8ZpKNyqn8/QKt9C33x7QsmWz1avX7t//zEU5Y/c00RoRgboepTKDwhMQRW+kGlUEgjgQQ4dqcSBcEOhP23fP64LyqAe4pxpZnG3zI1PCwu4hm0xpEzgQQQAVBXdYJk+ewh0W+8hEcPOFyB9ff/0tp1+VjZ84seID8c47bxLrGfdVpoY8X375lRvU0Lbz0ZgSsxwCIHBgwY8BVRuvSlMxVrEMqRSrYagFxMqAOlBKfYsJQ1kx1J+UJWSH0mGoFL2U+hMXS70sKXQAspwzZ3YMV7yuzfhVNIIoVQkCgoAgoCPAiRNPAuzuticWZC0eA2++OThaCIRqERn244/jCW5Yo0Y1drwVK1Zh7+d07N6MIBTnzp3Pjo2O5Ngx4hY4+Vy4cIGXInGDgFdD2Ttq26uC8yFOAPhAZMmSOVIEwlKhfaFsaE8/xDpVOUSKlNA2PhDVq9elWn5Xx1rjMEk5ceLkwIGDoTnpVCYAACAASURBVJK4U9hm0DNjWx8x4huieHGR0Dgk3CDmzp23adNmOBYXRHHFJdgXry93adj2EI+BdK/MmXPFQLVPq2RlqOhgJCkcAV19bNrVtBRqIoHJFCmzskqD9ESJZ6nhmbIUgZ7zSBAYxO3nyqarkiAICAKCgKsIoDyfNWs6Yp5j/aBB7x8+fNjFaBAuNsAuV7RoEczzGCN69uzDMcx0/3SxNkv831Rs1yg5XKmHDZYPBMKVzHofUPI3bdro448/QEDaxJ+27qmtgOdWBfEix4790Trrs39ztWHgwP8RYMqiw7aKcq1ltdTM+5vC4GFU6EDYO24ohr5lZqmZnwrbSCEcQ12yqjbGOUTsDENaEQQEAUHAYxHAAeLnn3/AlvH++x87jRfp3igQM0SMQOqj8fZASWM7KHxEcDlEA2H7lZWwt2R4xtuAv9Hx8GIwjvhmxZ+mAQsO+MTkxpnAJqeiFJoWgVusxM30NAJh02FPTBAO4YmzIn0SBASBhIQAx3RCS+FceeLEyXgh4BMS+DKWGEVAOESMwiuVCwKCgCCgIaCU0kIgZDUkMARi1qcygYElwxEEBAFBwD0EhD24h5uU8nAE4ibWtYeDIt0TBAQBQUAQEAQEAacICIdwCpFkEAQEAUFAEBAEBAETBIRDmIAiSYKAICAICAKCgCDgFAHhEE4hkgyCgCAgCAgCgoAgYIKAcAgTUCRJEBAEBAFBQBAQBJwiIBzCKUSSQRAQBAQBQUAQEARMEBAOYQKKJAkCgoAgIAgIAoKAUwSEQziFSDIIAoKAICAICAKCgAkCwiFMQJEkQUAQEAQEAUFAEHCKgHAIpxBJBkFAEBAEBAFBQBAwQUA4hAkokiQICAKCgCAgCAgCThEQDuEUIskgCAgCgoAgIAgIAiYICIcwAUWSBAFBQBAQBAQBQcApAsIhnEIkGQQBQUAQEAQEAUHABAHhECagSJIgIAgIAoKAICAIOEVAOIRTiCSDICAICAKCgCAgCJggIBzCBBRJEgQEAUFAEBAEBAGnCAiHcAqRZBAEBAFBQBAQBAQBEwSEQ5iAIkmCgCAgCAgCgoAg4BQB4RBOIZIMgoAgIAgIAoKAIGCCgHAIE1AkSRAQBAQBQUAQEAScIiAcwilEkkEQEAQEAUFAEBAETBAQDmECiiQJAoKAICAICAKCgFMEhEM4hUgyCAKCgCAgCAgCgoAJAsIhTECRJEFAEBAEBAFBQBBwioBwCKcQSQZBQBAQBAQBQUAQMEFAOIQJKJIkCAgCgoAgIAgIAk4REA7hFCLJIAgIAoKAICAICAImCAiHMAFFkgQBQUAQEAQEAUHAKQLCIZxCJBkEAUFAEBAEBAFBwAQB4RAmoEiSICAICAKCgCAgCDhFQDiEU4gkgyAgCAgCgoAgIAiYICAcwgQUSRIEBAFBQBAQBAQBpwgIh3AKkWQQBAQBQUAQEAQEARMEhEOYgCJJgoAgIAgIAoKAIOAUAeEQTiGSDIKAICAICAKCgCBggoBwCBNQJEkQEAQEAUFAEBAEnCIgHMIpRJJBEBAEBAFBQBAQBEwQEA5hAookCQKCgCAgCAgCgoBTBIRDOIVIMggCgoAgIAgIAoKACQLCIUxAkSRBQBAQBAQBQUAQcIqAcAinEEkGQUAQEAQEAUFAEDBBQDiECSiSJAgIAoKAICAICAJOEUjmNIdkMCLg5eXFn8afgo8gIAh4OAIRERH00PjTwzss3RME4gsCwiGczxSMgU/SpN7e3kmTJUuWPHmKFCmS84u3d7KkSZMqPuG8FskhCAgCsY7AY8vn0aNHDx8+uH///oMHDx4+fKhS6ItiFbHeKWlQEEg4CAiHcDSX8AO4QqpUqfkkT54cEsHHUQH5ThAQBDwJAfXM8vAmSZKKfkEaIBDQCPhEWNg9PvwpTMKTZkz6Es8Q8MqcOVc863LMd9eidUiKtiFNGl8fHx/hDTEPubQgCMQBAignQkLuhobeRT8Bl4BjxEEnpElBID4jIBzimdlT7MHHJ42vry8cAiYRnydX+i4ICALOEcDSERYWFhwcHB4ehlrCeQHJIQgIAv8hIBxCXwvoHrxSpUqVLl16foqXgzwjgkCiQgCLRkhISHDwHcwcYt1IVFMvg40KAt4+PmmjUj5hlIUx4CaZMWPGDBkyon4QApEwplVGIQi4jgBPfcqUKVOn9kH7iGlDaITr0EnOxIyAcIgkbBlsHFmyZMVxUthDYn4YZOyCALtBypSpIBNoI8SuIetBEHCKQGLnENzPtKgfMnD/wilYkkEQEAQSPAIcJLjHgTM1qgiYRIIfrwxQEIgKAomaQ8AbMmXKhPuk+E5GZQ1JWUEg4SFgUU+m5qaGuEckvMmVEUUjAomXQ3DUyJIlC6cNsV9E43qSqgSBBIMAO0OqVCkhE2Fh4XLtM8FMqwwkehFIpBwCDQQOEASPEgIRvetJahMEEhICFm/rlASoDQ8PFy/LhDSzMpboQiAxcgjCVWfOnEU8KKNrDUk9gkACRsDiHkGoGC9iSCTgYcrQBAH3EEh0HIKgk/hAiAnDveUipQSBRIiAuvaJOSM8HBdLiWWZCJeADNkuAokrDiOmTa5gpEmTRkwYdleEfCEICAI2CLBjpE+fwccHL0v5CAKCwFMEEhGHsHhIpeIVGEIg5AkQBASByCLACSRjxkxyCTyyuEn+hI1AIuIQXMQgFIS8QCthL2gZnSAQcwhAIDJnzix7SMwhLDXHOwQSC4dA95AuXTp8o+LdDEmHBQFBwEMQsOgyU6PO9JD+SDcEgThHILFwCB573sYpVow4X3DSAUEgXiMgFo14PX3S+WhHIKYCPCOtsR2g+uPtNQ8fPozbq9U89ryNU4JRRvvqkQoFgUSIANsaSs2bN2/G7baWCJFXQ0a4YE5iFtjSI3Us5AUovOddySOZu+haPzHCIZThoE7tOgFly/27ZfOmzZtCQ0Pj8AU23OSU13lH14qRegSBRI4A+xtKzeDgkAcPPOhtGkqaJmzRmNQraYqUKbJmzVqkcJHSpUrnzJnL8qYCL6cLMiIiCZN1/fqNwKDj+/fvP33mdOjd0IePHjotGI8yqAXAT9ZAbC6D6OcQcENkdtMmzbp3654lc5aqVav6+qZdvWZVSEhIbA5Mn3sYKx1IAEoInXHHCYzx6FmKVFc9beeVWY7U9MVVZg7BadL43L7tKa8IZ5dLmzYtcfPQjiTUkJrqZn6156q1aN4yoGwAem5mX39eXFkJ7JwcZa9evbpy1cqVq1YEnQhKMC95V2I3Pep2b+/Qu3dv37mNxiV2JEU0x5hiRtP6pm3ZslX3l7tnzZKVgfEnnPH2rVtnzp5hwlyZ6ejNw2t8E4AhA2AZiHps4lCjE71TE+e1sT5Blf3XQyBllpliukTHPKRLcT5HntkBZgoacfdu3JyLrDChM/nz5X938HttWrdNkSLF/gP7Y0d4xObUeHklzZ4928tdu3E0LVigoNs3bDUJlTZtiZIlChcucvXqlfMXzieAB43tAt1Mp46du73crUmjJsWLF79z5/blK5djZ2jRqYdgetAsNW3atGuXrrzOSpE+hpcjR45evXrDGGNfG0GX0DomACVE+vTpX+r0Us6cOf/e8Peff/2JSS82H+DoaouJ4MOkUCHrm08cbnb0hM2oebPmGNp+X/j7latX4rAzCmG61K5NuxIlSpw+fXrKtClxwrmja65joR61kGxnzSuJ9p9Vur3MtvKYFNs6bYeDGEPhGhwcbPtVLKewbEqXLl2zZs1k3smyZ8s+b/7cBBaWWxP8vr6tW7Zp1aIVIgZ4GeC1a9euX7+mKV0sE2aNuWWTefKxfKupatKly54tW9q06ZInS16mdJner/a5c+fOwUMH4+l2qo8PVtSlc5f27Tpw/CCxUKFCefLkGf75sOPHj7uykq2hi+Tf0cYhmOYM6TO0btW6Q/uOaCAQD2fPnj18+HCZsmVyZM+RI3v2Xq/0SpbMe8XKFRg1YocfqXVDaDm1fbiCDE9jiuTaf95JvR89fvTwwYPw+/djrbf2ekj/OZ768/HzP3T4EEZBezk9Np0HGJeUokWKFi5cGNUUD+2ly5f27d/HRhBX6kRQbdumbaWKlZhfCMTixYuN9lEXRU60A87DX7xY8YjHEa4v2mjvg+dXCDhsl+nTZ8TIffv2LdS2ep8R7RnSZ+RBvnX7Jq/tVuksP8JDJU3qfesWibyE0+TzpM50GViQt+88U6dJbosWHQ4RVyZaY5foSRrLpTM+itkkMA7B7lehQkWECwSCp/XmzRvLli/DHoEWwfWRsgYyZMhYulSpDu07lCpZGoVNsaLFOrbv+PWYr29cvxERb0OYM+kF/AvUrl2HJ4LfWRiMtFDBQg3qNQwKCjI+GqbLOOqJ0cMheGKhQs2aNevc6SVisMB9zp8/P3nKpI3/bGz0YqOuL72cPXt2ztC9XnmVmWLu7wTfiQV+BDoYCHHgdREmRgH7aVC/AcY2SM+1G9cPHjwI6UHaxZptyUFXtbMVO5flZ/z6AGz+/Pl5XMsFlON3pl6tdQ4Bc+fPZZHcvXs3dtaDFW7sR0+ctFGIGDYRnkZWDt/SsVh4CJ/pFRNs+cSvKY7l3rKKypev3LZNh6CgwClTJ4SG3tU7wOv0er/aP2XKVD///N3Zc2dUOn++OfBdwsP8OG7M6dMnTXtLnRUrVGndusPxwGPTplFnqGk2YyIVIrM9RF2UgFcMt2Aav9gI3TbgQxlR0c2dN1cniE6nSc/AnF66dPHkyZPvvfNeQEA5CzWpAGXf/O9mWLvr9XhaTvBJlzbdsyszOQI3dvrpqnx10Bv2O06W6GA7d+qcKZNGIC5eujhx0oS169cyZ4sWLWKbfqV7T2gENpuePXsxV8tXLIsFsUHH2DvYGhx0Xv+KzHnz5u3Vs1eJYiVUkTS+vnnz5C1RvMSkXyYdPXY0vuu7XAEhJvIALGfr/v36Y7JFHmOlu3Xrlk/q1FmzZcNA061rNw4EEDU3doQo9pbOzJk7h87cDb3714a/dK5AhytXrNy4cWO+Yre6cuVKFBuS4tGOAJK7QvlK2Mhxsw8Lu2esnxhQqAfu3bt333BpwvKeXh+UFpcvX7TXGQhBea1Or6CgYy6ebjnwIYc8hEPYG1d8T2dGsmfPUbJkKQby8NGjLVu3Lv5jsdvbBQcDXCknT/1l+KfDOe4isCAT27Zvc7tCT4CXnYoP26nqDCKY4Zw7dzZ2DmZR5RAagUibtnnzFjh0KAJx4eKFSZMnrl67Wj2HofdCly5byqmuc8eXsvHJmg05zVBXrlwRHBIco4OECignRKfTzCjoITqu4kWLI0vOnTt3686tdL5pc+XK7efnh3vH6DGj8eaNv/oupwjEXAbO9FgxIRCsh5WrVy5avAj6CODoJF7u+nKe3HnatGqzZ88eXG5jdDGYDpArXhMnT7Rql75lyJgBR2BmHH5jWlAS4xaBrFmz5c/vDyfYu3en1fRhMkuRIuWNG9d1HsCE5syRiw5zhHUgKtib8uf3w76+d+9uHHVcGSA1Q1lc0Vi4UpvkMUUAkNEK865EfsGJde36NVH0QWGHP7B//46d219o+CIssGSJEogJBwvDtFeek8j6P3nq5F9//9W2bVukGHpMjrscenGbi50dNUocgknlMknr1m1QU/NC7ccRjy9evDh12pS1a9fyKOooK5+1Rw8fdXmpq6aNyJK1e7ceKGuXr1iOOIk5bwPWBx9XJpuBVKpQqWzpsvyyc9fOX2f+hssutA7hV79e/QIFCpQsWXLDxg10lUlCrpDtSbVqq3nGfSeCcwnHoKiMi/q1TxIvWIsr60D1R++VVsbWycjSY/LoX+kaGk2PH/FYB+pJ45a/HVSlatMbtZeZ+73FihUjG96g8xfMBxnV0O49u9HA9Xm1TxrfNFUqVznrAms2dsxec6ajsJdZh0L/xYik1pzFsKCKG2u2xdBeE6RTg4PpsKpcb0X9Yhyy47lQDaneqrJO81u1pbeoqtK/dbySjT2kiL1GjTDaG5S9dKt+aoaMcpW8vZOePBV05cplI7Z8ZXktljfCJuy/lUZxOAc/r127ajpkEilYLqCSV9Kkp8+cvHr1sr1sVul0WOJeu4iV29kAGTeIVKk0b0F44ZEjR9yuSi94L+ze0aNH4RBUjjxyUUxEvd0YqiEkOOS3mb/eun0LacVbqfEz+/33Bahb7G070dsN9zkETx0yoHXL1l1f6sq7rNhoLly4wKmOe7dGAqG6C3PE9R1TfpfOXVFG5MqZs2/v15g5aARGcceblNsDRuHp4uJgJeHrx3YAG503f96FC+dBn2Po8pXLy5YpmytXLpwZ/93yL+Nq17bdiy+8iNelvV5RcNuObd99/52L6lCrekCVboMn5iE6D6Pkpi8QqS3YtFGKQGsyZczkk8ZHcwV99AjlPNfEGYtxQ6cGVALkpM774feTJU+GdEfrS56QkLvXb2i+jdSPazetM7O0jjYYFZmaIKvlSG30k2cbR1pcUPEloLmbt26qyC3GzLxeIGWKlFSC0dGICf3csnVLl5e6UEOunLkcDJBe8S3DhMBlzJCRaeJ3+kadfJRDgxEZ1TeeJc4uaqZUZhahVWblgEZv74UScOYRBQGEROWdRCtUAhRahnv3lDFLYQhWjJfjC+pQiuDlytpg+MpfWB8+6QxfmcwZuxWGpDMieq5XbhwFrVM/Q6ADTAr+nvSf6aAbts8LPWe+1JBTpdTe5sCQb9++bTtk0yWkJ7J+mE0WAFUpt2IOADdu3NDW0rMuI2pSGAKG2HTp04EzowsLD7t18xaqRybXOFiFM90GBMalLbC06bySejHw69c1hQGZ1X7C/DJqiuMyRbtW9ah+AlrhwkVRFeze9UQJQVn1pOP8lDtXHjixdlTVPJG155SbQHAIIKKtZMmSW2IERBCu0AgFk1ioUJHHjx7v3bOLDlgevUf2vC+NBVVm3RDmGF751j0EWF3KrY0JuhsSoipRe8IT/zD9FBeRBF94lhPfqoeCzPxptZD4M+SuVg95MHLx072OeUgpTu94hXN6nz5jmhqv7RYRc111k0MAOltbh3YdOnboyI7AJOEDMXnK5LXr1tgSCNV7dhZoxKNHj7t1xcUyB6V6dHsF0fDHkj9CYsaowePt4uJQ0oLMSF/+6dsfslYpKtFJsK2QAamgPvam5MnydcvzkfozZ8qMF2r5cuXBh52XvRsqs3HTRmKrmbZIr/Lly/diwxe5EIhOSNEO9t/Dh48sW7EUo4y+u9FtbPzlA8ofOXpk48aNMCHoUdp0aRH/t27f3rDh7xWrVvK4EV209vO1cV+i9fD74fjGojywuv6kZv/5mrWqVX0ORpiSI0KEdkS4ePkiNW/evNmIIaqpsd+PhRLRGaNcYTgUgXPAIbyTOVEXcReL22svNHyBwfqk9mEsIMOdjs1bNqP0UtuBwoe++abxrVGjRs3qNemb5fjixZokMyxw/V/rkS56N/B3eaXHK0iyGb9OP3vuHGVf6vwSZheUavzOpGN3oyEeyIWLFqI4IbFVy1alSpY6cPAAapWmjZuWLRuQLm1alkXYvbBz588tXLwQP1zddQZkulBhfj+mb/7v8/V0ukpVuXPlxppDZ2b8OsPKlEOLmAhrPV/ruarPsSRYybAWeCGGW41227gkQw0rVqjYsEFD+G7qVBovYchXr12Ft61dt5YBWiFvdy3lzcfywwdII5HJNArLEQe9KBZobS09fnr9QeFTr249dEiQUagVTdAQpkzUqrBDI2fCo7ZHtx4QoDnz5nARpmaN57FEw1GgXAQz+G3Wb+gjCTuI2o/+UxXtQiDWrFuzfv16eImxt7QLIcBsyqZx8lSg+ipr1uz16jVkxfJ4FihQiDxYOjp26KKMjzRUsFAR1kyRIsU6dexKP89fOPfnn2v0fdZSZw5V56nTJ0uVKlulcrUzZ04tXbbIFCir/sBUHj16xifDaSnJEEkEjKalJ/KedcI9Lx4NY1Www5OnTrDS2AmJKVChfAVucrJ0d+3eGZv3ASM5uujJzsKOEy7rDofgkWOLadGiJT4QnJPo+qVLlyb/MmnFyuWOD9+ai+XihalSpuzUqTMaJM3F8pWeDBsXS+POHj2IcqRO9szyclAtfUDG8JNjEPdk2KzZxdh6cG3NnCUzBRmguoKInNi3bx/nQnu1sW2dOnXKjSiq7HFI7n59X+PekdqOkcT0AU9PHA+3bt2qHfef/VCE60mYA5BGDx4+4CGh22TD6YQU7Hzjxo+DMegLi+O+dm8wIoJShEZg474bcpcTJ2ohbjmyWXOibNq4Cfn5Jqm3dtemZImSXM39cuSXmNyUHKJRJp0uId74HbEBD4AycbsMbxLcCHBx+H3R7zzGqrNUhW6N31Vx4wh4zuktiDm2KCMbuPv+SvdX0ECwwGAMnIk5jGJjKliwIDvF9BnTlZhkZcIw4LXo9Kicau/iXR+RhDFyZ5rMmNJmzp6p21M5fQIFKGDVVh2j81yLokWqYnvyy++nHVojIuBnegYwREKzfyFrteHfCyUnT0SZTGVYPF998xUMQw2WPlBDsWLFkYhUaDV9DIFKOEMobYTxWzAhHEj1atWZUJYBSgXGxUqAQjGK8RPGc6RWTVAtsDRr2qxt67ZMGVQGwKmKOhlIYf4rUAhyb0s7rDrDVDLX/V7rx4OpndJCQhga1ISHlKeAr0aPHX3s2DF9DUCzXu35Kns09ZCTSUF+gycEC0hZaYuXLKYS1Qr4Axp6Gm6x4wejLby7d+E6aHHq1qmLNmvXrl3QKWBHscRKJgXaQWaexK3bthoPVYzXz68gQV+Cgo6DKv3hJArNKhdQQWP4FvUYjWLR4CIfi87C1kjUSCrkA+dK9BA0YayTsfv7F6DO44FHb9y4BnR58uQjjxVE9v7kvUBhz/Acexkl3W0EjM/OEz7B/I4ZPRYGryrVptlLOy18POQjrnpVrVJ10NuDc+bIqczBO3fuHPnVyNOnT9nuQm73ydMKsoz5AAJrW+1asdNDu7LQXvN0ERHStk279u3aKz8XPO2nzZi6Zu0axwRCVch2s2DhAnbll7u8rLnFZszU7eXujHzpsiXRzhPVbmJvIMZ0FtaefXvq1KkDh2AvQ2oi9rBuvNCgIcKDfY1gHYpDcKpbt36d4zqpzY2VykkdwQyBoKEtW7b8s+kf/DohK5hROBpWrFgR5I3aDUBjc0eycnS7dv0ajqvHjh/j0Aw958hOEYQrIH/7/bcQIL0/VIJoQcGA+mfX7l0IJx4znEk5kePbiCzUDtOLFnEDCvmHhGjRvAXT1LRJ059+/kkZO5ATiLdqz1Xn/TX4joAG8oxqIUCNX2xcrHgxNBzk5NKmrpEyRYMinPgJHQMhsFVR6AiTjbA5nP6RlIEnAv/44w80Xqg0kdncwq1cqXK1qtXQfHCcpQiYIJMgEJTasXMHaxK5hRxBEDIExFjdunU58a9avcp4BkXMKGDpJ77ADIq7OZUrV8LEw3RDhtiGjgcF8q02BRahhOznJ1sVZ25kPJjjTwPmCD/Y2KnTp3SaotVtwx6Mo/PShKD1goKLFCtalK6uXLny9NnTCHW0NRz6mRG0R9yB4q4Q9EJ1SYv+26w5VezZu2fVqlVMB7/D/1BLcOivUrUKc7rg9wWPIp5qEazaAzcISt/efSEQiO0Vq1ageUIJhx6lQrkKjV58MWvWLKy0UV+PUmIbTQ9/UjnrDZzX/7keWyyVMFMEuS9cqBCcBmvP74sWKtWLcithCAT2QZXC7W44B5UQ4IsRBQQEwDzYPdgZWMOsB6gSl7zoDMSIVWpUbaLT5kYG03fs2JFwi4qC2bly9fLcub/xO1cyWrVsTwoqhJCQO4pCZMqYuU6d+ny7bv3qW7c02nH58iUjAhw2yperSJ3Hjx2lG/hYwCS0sq59XN9nXKvPJJeDJURu7VttjT1ZRvwJnbLwJ/OP6fNontWDU1lgQUGBaXx8tD4SISNNGg4A/Mo8sqexPmGWu3fvunz5cuXKVVhmPJhjvh0dJyf1mEaR+WbrZtNgP+QROHbsKE8lNF3f5WK0A5HjEGwT7E0tW7TEiRLRolb2rl0716yJhK8sIhmfiRrVq6sacubIgT6ZwwEX/LDgRuP6VqTMFfho9NChQ4yiSZMmHOK5iPGfwIi4j0TftuXg4YOqY/yMxh7qfeMMh2hHPDDr7LAIYMiW+pZdFR3AgDcGwGyMY2HnQmhxXGOtcNBE8umPB0Vu3rhJUFg/fz/OytxOND45HC7RErNfIwCokJCIzCmPHKp7xM/ESROPBz6JbnbixAnWJVeo+YnMVlwBBQYrlS0LloMk0/uJCw86j/6v9w8oE1C7Vm2Oj3o9plNA/1GDowemhr379jpY7lBVtgM291kzZ+07sE/lZO0RYYav4AfcHUXmMUZ4RunSpZggKMUP437Qz8EASLiVjz/8GEmJxEXw69029o2CmzZtomZ+gbShxkA6IoDJYzXpHFUxo/wy9Rd16CcDLlq8DQijEmyMJUTTUVknbIiEaBvz7RjGqNeDTaFf336ABk8CfIZMu+RE0KJHYQH/8OMPxifoxMkTED4WFfxp1ZpVPHf2usQG1LpVGygp3WZOmbunjR49SkEker68+VgGcAgeqyJFimBuA3DwYe3pqwuQWQNvDXwLVUT9eg3+3brFyA5hpQcOHfz+h++hsPQcuRdy9y5qFQ4SrP/Zc2ez8lW73Jex6MbaMbPgGRj0xGZBthw5cubJmw9/yb37dulzd+3aVf4xcQUKFKYGOMfGjX89tCgSSPT3L1i7dj2GtnvXDvx+rEBgONSZO3deNEr79u2mCHqpwMDjKhqBcXmY/q6J66SaldMetqalIpUIbixszPb2SpEBUap2Y4aDDsbCIcw/OIKwsHn2Y67D5g1HW+oTqsRS7PNabzVq9jQW+aC3Bl+8dIFljxWPLbR4sRJ4GqKB69H9XVvatwAAIABJREFUlR7de3AmVJmjrSMeUxHPL6bMQW8NQlPJagwOvoNRddq0qfjSxcIsR45DcFbu1KFTxw6dlAZCYYiUjazqntMJ1zRUceaVAwfhpyy+EU/1n1GfIDy3Xa8ErDnK469LvHF8xDAiIKs4YnKWZWtzRcXielu2OdFCo65HMiGxEPBGCUfH4ARLly7t2rUrzol6WRgYJmQKrvtznZLB+hNCkZ27d9avX69I4aKInH///Rd9u16QzXT1mtWKQJBIZu3Q+UDzEERKsX3ryw41+9HjRwPKBXDORpd+w+sGuxVGeiQTug1uaVr1EwGGR2r+vPlx5ihbtszJkyd477vtYEmhqwjaypUrU+GOHTtQZZlmU4n0hw9F8E/kJx+VwiYyYdIEVDU3bt5QxALhMWfuXG6QQxp06a7GSGacIVCPI7EypE/PhOrDNDatGtKPcEoRats3iuPcY9UE6pA6teqw3YOPbZFIpSCVly5faiQQFGfifpv5G+IZeGvXro2DOg4KNapVx+2DB4pNE/zJpi8D8rN0OeKjHWEZoFMxHTJFmAusFfzCwkBPYMwGsLjj8OY8FmemTFgHtCh4aHpYEqhJWANGekpBcJ41e9agtwfRSbQO+NPotaGdWrp0iSIQ1AO2BBxE7cGMsAD+/PNPPSeqiEOHD6uxMLqnHMI7aYXylSEf3MiANNhCqng2FztRkunfIn+RMZrRKSzUFgGErgoLcfJkELKHUgx5566tdeo0sK3fNIUaTNOjJZHKoVmYjYjSZ1+flQSSreadtUfkAwcbMg8+jkHTpk9VasVo6WTsVvJEv8JUqtlk4CjAOrbvRDdWrV6Naz9jJJDlipUreS8a6liOZ2guz5yOg9vjsYAMw8+dO/ervXoXKFBQrQEePfTHKGnwnbJd8NHepchxiPx++Zs2bQaBoB90Tt+totgtqkIiolHfuXOHpsy0cy8x8q3Y6IgdVgFjgEZs376dYxaGc47dgUFB586dNe6SthXwkPNhX0Pi8nGv8/gMqhUQeDyQwKu2rRw4dID7GfrZCORRG+DLxkZw6eIldpAnYu+/EZMh+E6IWl5cwUhicPnC8PFU026ZR80ZxXIhHmaglM96B7SjfEQS5UpKIsoDpcZnmmwFP1WdO3sOrzpms1Sp0kuXLbPHIRBImDxw2sBSYCQ0tgOnTtg02dgLsKEgeBBLCMvwsHAkKMdciuiY03lOIfxj4Ig6jq26kYJsahNhCMmjHPWBseMratVbHErYvNjEadp2IJFKYYBa7DybB4GQqYePHEaV4u/nDzMgwgqxd1h+6voMKlytFcN9YxS5SFOGjNnI3tNKOpsOvApGuHX7M84Hqs9ctRj22TB1cqVLOMlzWZdfiGR//YZmNzF+SIeGovpi48b1AeWi+paJg3hBGYyZqfPBfV59qS08nVtYRhDxxE/WS1tyehHO4rwqiads9+6dijVatZ7Fcv/i2jVeffLkG/6EIXE4g/CZKp9wg+BGBs/47j3c8nhywxljB5TCqnJ7f7ry7ml7ZZ2mM3xcTevWqed4UemTSzZeueS4WpyWtm7bcuDAE68dx5k971vrXR3WzsvG0Mjir7NgwXydG6VPn+6Lz74sW6YMJBK+O3/BPNM143kDjHSPcufMjd+V0STKaR/zDZbQx0meXtqPdL2uFYgch0DS8MxrN+Vu30GJGvXzFp1EscbxkdqY+0ePY3zAjmFhkWFuZ6dW2Ww3cWNx9m6WL3slal76z+0adLmUZSCOC9r2AYW8b5o0pF+4dMF0oYMSkt6oX0VgcLpiy2jTuk3jRo1t68TrjW6kTqWd3Y3f2naPbOrA7dSPDL6P6KI2NO2mY4SHsf9y9s2WJRu6HNte0RmOsOj8cU2gBgJE4j1gWpVeFoHEGRofXpTtA/oPQG7hAAtTIWYt+yBnWTRhxhqoH8toqVKlOJVy0VHdikTqwzm0I6PmfmC9Ddn203GKJo1szc2AaJLquCbzbxkdj5ntdwwThgSH4NFL7ZOa+VJLgqBYb735liKCxlKgjfiklONHFbhYSEhZzT3W5qPEv54MmcN/ljqNKitjIXin4hCsFmO6xrBtHnALYlpIFafIMRYUlpkyZ+GdhOcMEclIp/OaRwB3OLNkpUVUFBbmoc0QX+XKpZnJKQUUFjSecn2tTsstjzvBt8+de3pOhYzu2fPUVmIDSewlgLO60OugSYs7hOZMx4f8jk8yZGD1mtIpB0147Fc80VAirHusuhm/zWBzMG4FABIefh9wUuAf7eeHvdXqjOSx44pUxzi5aoo31rthY4MWR9d25LgzkeMQqIhnzZlVoXx5LKbt2rSH8DJJjhtw/C3zzYkW+3TxosX+3vi3CszguIjr3xoXk+ulyOlKQcvuk5VwEdwh1I9KKHJnzvoNMzCsyJVK9F5BQTTxhi2Wm6U2uylVsfShbnp+WseJQe0aiAerC04qG0XYfbi3aUpKIgWIbT+1yxE2p2SVLTRUu0moXfi0WRp0GN6DXh1VG6oXbkvOmzf3njOndgTMoj8WsTtwtxOxhPYFcoAdh9qwYixatPDvjRuQfzSqYIFR4SmCnHuymVpIAx+Lwiia1M7RQhds8NFx1uC1WQZ8yxjxXuQXLDj8Y97Bkz+ha0RcMJ0RdeNJ4WM66SDja3FuZ8G4ssNCIilCfqM2y6pmddEGhm3aommi6XiNOZk7/wKFuM1x9swpzVX2vw/KidKly/ItdCFnztzacHzTVqpYRVWoXewsqBnC0dtVqlSFQiHBwQcPPXk7NoUK+Gt1ntIuBD6tk5WDUdm0n7aJprDbZnMvhRn5Y+kS7NyKHmmVGJeNhcjCH9CbcpJhmEgOLJvP2CmeJbtQajR/nHZitNvuDda1Uk/Hw3ih0o0bN8HghUjasvVfNSi1GGAV/xvQH47YuaNmf+/dqw9XrGHnrrUSb3IxZO4qnzx1iosqSlml7RK3buJPGo07vwM4IschmJUFv8/nfiZa4saNmjio1/Wvgu/cQcuEE7jmImF4/57rNdjLGXMIamvXx4c3kaKt5XeUtJxxcVbIrL3vp0+KlCmJM6o7HNjrnjFd5xypUphsuzTB4jAqdVklIMZP9nHYN7dJ7bXCUdXxzUl7BU3TUTirpxTxYO80jxqAsg8fWHtCMApMGJjSuQACZ0InP3Xa1DBDPFPTFlUiU0mcUEJiZ82WFfM5fp38V6RQEeLdE/wUaLD8sdvSq/Zt2zds2BD5i0cn+TGO4urIYT1/3nxFLZ4EDlqJ5a/sAUg3TJcB6WAIN+IX7SjNR3u3rGb4P3Lk8G+zZjpgAA4cKplQdcGBNcZB3SkIaq1qs/nfhVjbImoNGFmvbZ7IpkCYuD1Bbw8fPmi8qUH4jXZtO2uqCAtNpNoqVapVrvycql9PLF68VNGiJUik+KHDB9S3MLCAgPIAefTIIWOdkeobMW8ilT9SmRnvxYsXPvrkQwel2Bm4qjN40GBuJkEWB73zNocZB/nj+VdPORSTXrZsWTzYWN4IEXxr1NC4Xle/fn0ckxb8Pg+1KBFumjVtjoG1cJEiCY9DMGTMu7hC/+/1//nlz4+g4JixZMkfG/7ZqPbqmJ7uyHEIeoOY56MdfG11ue52lr3PaA11txrrcmyxgMgmYv2Fnb8ZlNNzKl1lxyHbCw1ewGWMmnBIxNMNC0jNGjU5XnNKbtGsBW/oRttvpx2TZOwgEBGOSpw2TPuA9DWqoxkXVg9YF5nRG5uGNVX10NtoXEnYrXE7RQXCuce0nxApZDyYozZAwulDJUW7jVmvAS/wBWe894ldYbx0agLKf0m6GNBCdgbfCUoSxM0lBDBuK6/16YvnPndKuWLK1IAefpoc0NFs4W6pTPhUQw18atWsRfwDBw1F/1echdVJ0dIBq/oJ4sTZmQmybZe7lKBkS0PBHCcS8uMky0SE3ruHnkkbYFICP5+0lYJq4CwA01ZUu9pauqBZ0FhjfGw7QyXIWo2xIC0fP8bTk46xHjEt2Q6K4hqZxkEnSZLr16y9JWwrdz2FmA2oGRgjNzJ0xwWKM+87dmzDKYGAmUUKF9MIwdHDRAYBeSCnn2XKBJCHu6AsHuYj6MRxHQ0WD3Xy6O3dt9u9x4RSmtLYjk7O9dFJTpcReCp42DB5UzRnNjQrXLRWNbAmy5Qp/Xq//lgDeR9bUFBggwYN2Xy4r37tqokfrsvtem5Glve2bVvfv3C+RvUanDFwnsNR3cGJInpHEmkOEb3Nx2htXP5wvX5WHi579rZFVQ87BbKKC+tY2Qk2wMbKfvrLlF+UYRj3MfYm4vHhiEDMBgcxD2x7hXkSrx80coWLFEZC68JP5aRv/vn9lGzWy0K6sVTgL1awYEHO9Fbyhn28bEDZ4DvE8tNES3Ttcey26DzgSYSTSp8hA28VMdZMPzGWcxuPTnJrQHlXKDFGPzu0b0/gF7TH23Zs584V7n6mvUJM8gFJvuVDcbQImDw5bOFProapCnKL5J/NmziBkQFNPuoWRCBRB3h4uKJpNWrq5KUnpjLPajq0VpNYqKf6z3a2XE6B5KknWbNVPXvdjvrRo2CmfWgJMW71IZArC4yVZpT9FMGOAHOlg0h9VFDc02OLLF+uHLcu8Y+x8iwhPyEZOKjBaIl2qlelI6yn4D6MipGFx7Qyv0Z1IJWAbaeOnWD5GzZswBuDtcpPXF7Ak6849KjpUEMgf67cXMzMSeXsZcavrAcZmb/pM0oIKg8MOsayNxYNDDzGP74qWKBwAf+CvFhr4aK5eMkwixALYlNi6SBWBK8It2j4NQmkesUptlxARf7kRZ2Uikx3nslrFTbb7XqkYKQQYMYJo4d7LxZwgsDqi5nJPXDw4NYtW2rUrDnwjYHsA/BIlvfqNWuwm0eqiXiUmeFzauVKlOpzdD13riCQkDmEch5kqbkCBNkIpUDoQ3Yre/mZGLQO5OSSIYcesuHWp3vx8C36c5gv0VWJTEU21yeSFcCdOmJD5cubt3xAOdRQikZQCf3hIkyTJk2trMuoK4nfgGxGI0LoTOSHkruqCAPp8XIPeDoxDYkl4HpP7I1dpdMENxjxReDiflXLdUEuI6jK6ScinDhIKjrCjl1PiDA7NVf8e/boifcMzzMhojG+wEWUJNNXvJJbJOLrwKWDK9eunDlzRh2sucFBVGmUENAOrvmpnMh3MquNg59461EV/6+UZPgb0q6ekxM/cSorVazoYHKNA7dcFoiAh6l6+Io/VVuO8bH6lhXINFGWoEm4PeqCnG5gVSGsuL3+QJjQaSHOMfyrdplWDATNmzbXbnI+eshqgZ1QM9c3mjRugo4KC9H4ieMR8Hp+OC5fEccJMf/m229qV2wsYbgIIskFK5RAIKwM59xpZAMiXHqLFi2wpmtRvCwcjkaBsXiJ4ujY+H33bi18AqgS0ZzrObiCEzuE1aVTXirnGMSCZMUyX9t3bI8UXPYzay4OhHmg6V27tlstZv1Plh/+IehmUEL8N1ne2bJqfp08pEh6o/aC9aPqZMns2r3Dqk77PTH55hnnA5PvJSnqCBiV3k/2c6Ys6MQJQt3zjBDPwziD+FwTWrfH5YsVylfkUkbI3TNoKebMmW1npqJPox71gUa5hkjJnSi3plWQwDmE6xixBDElcrZjDuyVIo/yQmAtwhXIxgkYnQS7s9pwEQw4ubG5s5VHalciM0EG4QTwGCKIc8Rnm8axjs74+flxuYuDplWFHLuJt0i0AFw7+/bpS7iCg4cOce7FpO3v79+5Q2fSuSRCCKlI9cTe2FU6VRHBk3hKZcqUIVApGheiWaiwBJgbMUw+X/N5+owcgl2pduEEBMjibiF/cg7AuEsIZ6tW8JnfuUsLR8i59o3+b2CkoM6vR3/NAZqcBEKuW7su6vGuXV7GZRXJh4RAXBETE9nGL1A3FVuJu46oZwgkBWKk0Ae4BVKQszu9dXw3Qe8S/dSuRTx4oIV6rN9wVcQqJDqkByQdg2P7Lf0kKBbjRYcEi5o5a6aKQIDOoHPHziirbIuoFIQlQpq3dWgvqjivvWcEDQRxOQk9SYaDBw7qEaB53ymKXOJCVqpU6V74veXLl6sm6DOgUYTpINCv8onhdy59YTiH1UFuRowaoaxgLOAly5ag0ELDxNGNU50WrvvxY5w2A8oG0FXE8/Hjx+A0ak4JaEZQV3pIIFQ4Dco5FSqDJYchj/EycBo1BoewN1JX0nkis2XLniFjJvwcz9l5vyvLIEcO7c1t5GGyVLX8yW1PfkeJrXr+tDlLnTywrJPz580vGbnSN6q1I5lcKS15XELgGSFv2J5ZYKO+Hgm3ttLCMil4W48Z+y3zy9GLxWmlu9L2+P/2+YRhhmKpc2ZAGHG0IoKnfpZwCd+oZUrIHAJZzl5s76hnhRvLbvgXwx0QCJVfnc/YkREzqHPZRvHgw/rOLsyVASIGcnhl+UKErfcsZ/PEnk6AJvw0MQcQBrTRC43QMPMAsEfTK8Qkuz+xRHT3deonGiPhJrnbycGd4IAcczn8ISnpCSIEP6MlS5YoCaQ3rvWKJ9KWeasU23Qt7zMu8xxqeUkSL+vCD5wzLooH2kXtj/qdN6GAOYYVMuiXxxA/SCY6wCiImaicSKzAQDcOAYJDqLczkBP7JfoMqgJwfMg5RnB9i/DPxJqEQ+ANgNsUaFAPKIGb0ljQk03/bmqRpQXE64P3PkBA0g3QAFKmDO3O8zWep4jTKwDEfkBeEtiORvlHH6ZMm0K7qttgaFqDAsr4FRk3/bOJRlH7c12bOE5MB5wGTQDLEqeQ/PnyWa8LykdEQMIYYPny5XHaVbEToB0YRPChpBt0RheTZEb8o+cA2Hp16tWoVgMtAlsq6KEMYP0HBh3nhWH/ncsRnNmoSiEM2kCkARIRgc4AGsqEAh0B7y5dvnzn9m30WGr5AezsuXPUlRDys8KnT5/+er/XcYthzXNTF4cexqXWADIV8vfrzF/1nV1HxhQ3CwI2K8+QgDKucOFi7I+nT528edPcx4IRZeflCBHErXp6u49EqCeJONZpk2b4gD/OEylTpjpxMgjDh/UsuPw3g1XqLpdLSMZIIwDIbCzsaSgUIdNGQgD49nzGWfMq7rttezgepk2j3VFnVUT2vGdbW5ynsJhxBWvGp2lzjmE8y5y1eAatqFUM9TMhcwiLYtvi/unaR99nnWZnQa9YsaJk8ZKIMQ5evDgABQa/Y8JAZUpcSF3eOK1Kz8Bq5oiPpyH6ZMzSiF7O02hfIdFE/iGoMJs1UsS44inCERCugAIA4wKBguDdJOIPj1ResvSP7Tt26Bsc6YheHj8O68YXMNIBBs5pTFOfWJQrxg+y6vYt7eXj6M/VLsxPBM/3P35Po8hF+qnO06ANDcJlgSsSuHnqWzbV0qjj1cyrv1R+TtU8ABUrVLh69VrgiSA1I5hL5sydg/RFViHSgAXZoA0nNBTNDe920t9xxWCXEAkxPJzzOnNB6A6EFomoEAj+iggsVaIUY+Eug2qOvQm9BfdprZwSUH0jp3l3Fxod9i1q0GEnM8OBMlqtFipkpHA46jQOFqeQyb9MhhSiueGgAPGiIHOKTQfNE5QR0avfYaESVT8cFBncsnlLOIQmxZN6EfuBnjNS3nxhxQvpz88Tf8aCgBII3QkERc0p6dyeZeAIeDWn1I/bDToMrFFQE11XpPLDRZjBRo0aoTriwgv/yM/A4a/QC6UT0us5cuzImLFjiDgXUKYs93hZftAAgEIL8s8//+AbRG/1haThzIvRg7V3whlXF1CApDYFd60jSJKTdBYqfhhMN74OKKsOHNzn4NBPKBTCPKDo0ptA6nAs0+JJGGI/qG/hJQUKFMIN4qDDOo29tf0dfHQyZ/utpEQLAoAcHBwCzrAHrgKhqVUuwFGpnI20WDEtEheV83REynMuKu3GUFn2ui5duuIZpuzd3H3j1DRi5JecwdRGF0Ptqmq9Mme2q1B10DCC+acfxqsXQXF3f/SYb5RC20ER41fovT8f9nnVqtr9q3/+2Tj4vcH6sdXFGlzJpp1CMmfRr7O7UsT1PFTOKwN4VTR+8mxVFFQbyt59eyZMmujgKp3TJjQtfVFchYoTdQpPct4lDSFgt6VFJTutpBeJaPNKlyyNDwS/QBTwo+QmNLut1QKiZlUD6VZfIcnUEKwqd1BE0x5nz4Gum9lUjyJ3KRF+yjVBHyYtOlUFUVxvF0GLpp2DL1zH2Enq4StO25hFIC4YeghLh3EEYWM1FnJiZOFlUZyz6QzOreje1QLjKzVMVUTvG61bVUI2FjnB7xgd9wuAFAFJfvXR4LN8jLOpvjLWr38LAvhIMqm4C0Bl9u7dC1uiuG1/jPXzOy/eRIeBCgo08MUJDAzktovpaR6fTSxrcA6uv9IuAhjCgZeD1YTylaIyaBpCQoKN/ed3WmQbQl3EwNGowXVwXIU92A5WFWRcuXLlLlc2AJ0HUOOwggnDystSVavWgBXO/8H5JHi5EU++MhZRv9vrht4ZfjHm+W9GqN9kfl2p0wofqz8ZDm7F9s7BjstG47fsP+puJ8dr9uGWbVokpLudTCLPzsgvR3F4AHB8sL4c+QXDtF3YrkBKbTzXVapU+Wzo5yxazhuE/eYOlwNu6kq1cZiHEeE3/dmwz4kUx++qJ2x302dM42ihnyFjrodxo4dwcDM+GofKboLXApRTRzZ6K8dtnsPcc889h1EDgzeSng2URI6SUWmIZ4Nd23jsU7VZSSy9Ccsww7bv3M4/x+06eOrsLTUHRfgKg47T+9Z0z17lpr3lEK8U7FbfUg8PPFoKp5565ESHyRs4beu3wtBx39hWkNl8jFDbmwXy8JW9b8EKBqDekmXslW1/jCn8jgjnn+1AbFMQ4ZyoeLeW7VdWKSCsv4HC6itaZPfZglP71i1O6yED48JBgX+OM1Ot6RqwAGZjxbDUZVXEwTrUm7bN46B+1XnH3Xb6LYOKv7LH6eg8JAOTCDc9cHA/il6OOlUqV+alj5gvoW62M+64zwgC+BYG6J7de2Kno2Y2il27d1upxxxX4oHfpkubXoUc1PvGMHPm0tyDYqG37nMIi91WO0gRP5+zvr29wHQM5OetBeor8y3EtFjkExGurA8OXpEv6rwEQ0aColtG0wsOasOKFA7O25AcgoAg4KkIYLbyCPGj9mL1U9uWPRUvd/uFiRALKZcs0CymT5/hle49Mf8vXb7syuXLGDo1XxobWWlEQYlS+AdeViVKlOzW9eViRTVDBmSaSDPEZ4vXkNF54jRicVaXARkXKQwNp67Iciz35sdNDkEvoYEKeiwaQ4cMi9SzhDYJWzVTyyD1etwbgONS9IqrXjQXQ4xMIRCvl6BjAOVbQUAQMEWAvcvWjcM0Z0wnooLiRXqIjeQpklucS7RLvAnpg74HO+m8BfOIU4LTF2fu9u061KpV+7IW8o47OC6RJgw9GC9Q+HOCBRz8bHjbDm+71SKPxfNP0MmgtevW8OIFXiAHn+Kt94cOHVyzZnXsCCY3OQTPDxNQsUIlXryFBzj/3JgFRoieYP/+faZ6TjcqNC3Cc85FcGXvN80giYKAICAIRBYBdq0494RQfWY3xj93w8a/cSSaOmNawjOvaEftkGDUvUSQI+QJVID9HEc0CEGkZk3JVOAixP7hw4cmTp544MCTN6dEqh5Py4xHP7GSIZFVqzyHP1PQiUCwwrYeOxzCTZ9KQOQ62VsD365cqTKdduo0Zws6E4nldePGDWO/H8ttNNsM0ZXCasPXzELQ5CMICAKCQDQgwO7MjdBIOZJHQ6sOq8DxC49dSzStSMTndVilx32JE0P1ajV4qR4Xi3CsxurvuuhhypT/Ct4VXHNbtXqlHrDO48bpVocQxChpkHfcdcL6EzsEgp66zyGYPJxcuG5XunQZ8+g9Rg2Tslf9l4LlDhMD7oerV68mDlJMm23SpPHFu15UEW6tTCkkCAgC1ghw5rty5XLCO/Fbj9Pz/mYbRw+BX2SFChXz5clLvGAum9kaM4wOEupbPLK57XX4yCHCrXI7mhmMNSnreShGZ4/c5xD0AicDXA2YVDe8DZg/nBX4xMJEQneyZMkK0XGjn9EJttQlCAgC8R8BtiwCS/CJhb0r/qMVIyNgS1cf17d0JosP51U+MnHROCtu+kOoHjATsLlo7E0MVcWiIQIuqh5RRcQQwlKtIJB4EODkE5UAMIkHqJgbqaICMVe/1Ow6AnbfL+V6FfEiJ86bBMwR+hkvJks6KQh4LAJILzwhErDPgcciLx3zTAQSC4eAPXCHNl5oTTxzoUivBAFBgG0ET3AV81TQEAQEARBILByCoeIAdevWzUjFsZAlIggIAoKAjgB7CEqImPYBF8AFgXiEQCLiEMwKB4jQULFoxKP1KV0VBDwFAewXRHCSuxieMh/SD89AwNvHJ61n9CSWehEefp9XyCZPnsJ1h95Y6pk0IwgIAp6KALoH7mIkvBCQnoq39CveIJDoOAQWTS4Kp0iRnBd2CI2IN+tUOioIxB0CEAguYnCZM+66IC0LAh6KQKLjEMyDohGoIghzJjTCQxemdEsQ8AwELDfDg1FCyK0uz5gQ6YVnIZAYOQQzwL4QHh5GgCzRRnjWepTeCAKehAAbRUhIMH6UQiA8aVqkLx6EQCLlEP/RiHCiTolvhAetR+mKIOAxCCgfCF6KIQTCY+ZEOuJxCCReDqFoBLGnkib1jtS7WzxuDqVDgoAgEK0IQBq4BM4tDIlHGa24SmUJEIFEzSGYT4tvRNj9+w/cfvFHAlwUMiRBIBEjgPohLOzejRvX+ZmIYZChCwIuIZDYOQQgQSO4821RSCRVXpbiaOnS2pFMgkDCQoCt4NEj3oWhOUBIMLqENbcymphCQDjEE2Q5fBCB6sGD+5g23HsTaUxNkdQrCAgCMYwA7IEdgPAP2C/4KQ4QMYy3VJ9wEBAO8cxcopAIDQ19+PCBtzdvpeef9kk4sy0jEQQEgWcRsOgeHmGHv471AAAB0UlEQVTQvHHjBt4P8jItWSCCQKQQiNK7vyPVUnzJzIEkJCQEnUSKFCnTpPFJlSq1UksImYgvMyj9FAScIqAUDxgstPD3oZoCEj2E01KSQRAQBKwQ8MqcOZeA4gABPCRSp/bx8UlNJAkcJuATxsxCLBxAJ18JAp6AgNEwoagDygZe4Qt74Kgg1MET5kj6EH8REA7h0tzBFTQvCe0SaDJLnOxk/K7bO1yqQjIJAoJArCOgkwacJR884N8DfuEjNotYnwppMGEiILYMl+aVnUjbeB4+DA9PcvfukyKihHAJO8kkCMQ1AuIjGdczIO0nWASEQ7g/tbIxuY+dlBQEBAFBQBCI/wgkjf9DkBEIAoKAICAICAKCQBwgIBwiDkCXJgUBQUAQEAQEgQSAgHCIBDCJMgRBQBAQBAQBQSAOEBAOEQegS5OCgCAgCAgCgkACQEA4RAKYRBmCICAICAKCgCAQBwgIh4gD0KVJQUAQEAQEAUEgASAgHCIBTKIMQRAQBAQBQUAQiAMEhEPEAejSpCAgCAgCgoAgkAAQEA6RACZRhiAICAKCgCAgCMQBAsIh4gB0aVIQEAQEAUFAEEgACAiHSACTKEMQBAQBQUAQEATiAIH/AzqUDxqKg8OVAAAAAElFTkSuQmCC;" parent="1" vertex="1">
          <mxGeometry x="400" y="40" width="238.97" height="60" as="geometry" />
        </mxCell>
        <mxCell id="uOirY4Np7vHqHZwTuPUK-1" value="" style="shape=image;imageAspect=0;aspect=fixed;verticalLabelPosition=bottom;verticalAlign=top;image=https://raw.githubusercontent.com/sait/saitnubeprotos/refs/heads/master/cotizacion.webp;" vertex="1" parent="1">
          <mxGeometry x="80" y="40" width="238.5" height="530" as="geometry" />
        </mxCell>
      </root>
    </mxGraphModel>
  </diagram>
</mxfile>
